<?xml version="1.0" encoding="UTF-8" standalone="no"?>
<svg
   xmlns:dc="http://purl.org/dc/elements/1.1/"
   xmlns:cc="http://creativecommons.org/ns#"
   xmlns:rdf="http://www.w3.org/1999/02/22-rdf-syntax-ns#"
   xmlns:svg="http://www.w3.org/2000/svg"
   xmlns="http://www.w3.org/2000/svg"
   viewBox="0 0 461.33334 453.33334"
   height="453.33334"
   width="461.33334"
   xml:space="preserve"
   id="svg2"
   version="1.1"><metadata
     id="metadata8"><rdf:RDF><cc:Work
         rdf:about=""><dc:format>image/svg+xml</dc:format><dc:type
           rdf:resource="http://purl.org/dc/dcmitype/StillImage" /></cc:Work></rdf:RDF></metadata><defs
     id="defs6"><clipPath
       id="clipPath18"
       clipPathUnits="userSpaceOnUse"><path
         style="clip-rule:evenodd"
         id="path16"
         d="M 0,0 H 346 V 339.526 H 0 Z" /></clipPath><clipPath
       id="clipPath30"
       clipPathUnits="userSpaceOnUse"><path
         style="clip-rule:evenodd"
         id="path28"
         d="M 0,0 H 346 V 339.526 H 0 Z" /></clipPath></defs><g
     transform="matrix(1.3333333,0,0,1.3333333,0,8e-6)"
     id="g10"><g
       id="g12"><g
         clip-path="url(#clipPath18)"
         id="g14"><g
           transform="scale(0.71933472)"
           id="g20"><path
             id="path22"
             style="fill:#ffffff;fill-opacity:1;fill-rule:nonzero;stroke:none"
             d="M 0,0 H 481 V 472 H 0 Z" /></g></g></g><g
       id="g24"><g
         clip-path="url(#clipPath30)"
         id="g26"><g
           transform="matrix(0.71933472,0,0,0.71933472,0.35966736,0.35966736)"
           id="g32"><path
             id="path34"
             style="fill:none;stroke:#000000;stroke-width:1;stroke-linecap:butt;stroke-linejoin:miter;stroke-miterlimit:10;stroke-dasharray:none;stroke-opacity:1"
             d="m 411,158 20.59,90.78999" /><path
             id="path36"
             style="fill:#000000;fill-opacity:1;fill-rule:nonzero;stroke:none"
             d="m 432.75,253.91 -4.95999,-6.05 3.79999,0.92999 3.03,-2.47999 z" /><path
             id="path38"
             style="fill:none;stroke:#000000;stroke-width:1;stroke-linecap:butt;stroke-linejoin:miter;stroke-miterlimit:10;stroke-dasharray:none;stroke-opacity:1"
             d="m 432.75,253.91 -4.95999,-6.05 3.79999,0.92999 3.03,-2.47999 z" /><path
             id="path40"
             style="fill:none;stroke:#000000;stroke-width:1;stroke-linecap:butt;stroke-linejoin:miter;stroke-miterlimit:10;stroke-dasharray:none;stroke-opacity:1"
             d="M 79,283 194.78999,256.42001" /><path
             id="path42"
             style="fill:#000000;fill-opacity:1;fill-rule:nonzero;stroke:none"
             d="m 199.91,255.25 -6.04,4.98001 0.91999,-3.81 -2.48999,-3.02002 z" /><path
             id="path44"
             style="fill:none;stroke:#000000;stroke-width:1;stroke-linecap:butt;stroke-linejoin:miter;stroke-miterlimit:10;stroke-dasharray:none;stroke-opacity:1"
             d="m 199.91,255.25 -6.04,4.98001 0.91999,-3.81 -2.48999,-3.02002 z" /><path
             id="path46"
             style="fill:none;stroke:#000000;stroke-width:1;stroke-linecap:butt;stroke-linejoin:miter;stroke-miterlimit:10;stroke-dasharray:none;stroke-opacity:1"
             d="M 116,117 241,80" /><path
             id="path48"
             style="fill:#ffffff;fill-opacity:1;fill-rule:nonzero;stroke:none"
             d="m 115.5,117 c -1e-5,4.9728 -0.95151,9.75633 -2.85453,14.3506 -1.90301,4.59427 -4.61267,8.64957 -8.12897,12.16589 -3.51631,3.5163 -7.571607,6.22596 -12.165884,8.12897 C 87.756348,153.54848 82.972809,154.49998 78,154.5 c -4.972816,-2e-5 -9.756363,-0.95152 -14.350636,-2.85454 -4.594276,-1.90301 -8.649566,-4.61267 -12.16587,-8.12897 -3.516308,-3.51632 -6.225971,-7.57162 -8.128983,-12.16589 C 41.4515,126.75633 40.499996,121.9728 40.5,117 c -4e-6,-4.97282 0.9515,-9.75635 2.854511,-14.35063 1.903012,-4.594278 4.612675,-8.649568 8.128983,-12.165872 3.516304,-3.51632 7.571594,-6.225983 12.16587,-8.128991 C 68.243637,80.4515 73.027184,79.5 78,79.5 c 4.972809,0 9.756348,0.9515 14.350616,2.854507 4.594277,1.903008 8.649574,4.612671 12.165884,8.128991 3.5163,3.516304 6.22596,7.571594 8.12897,12.165872 1.90302,4.59428 2.85452,9.37781 2.85453,14.35063 z" /><path
             id="path50"
             style="fill:none;stroke:#000000;stroke-width:1;stroke-linecap:butt;stroke-linejoin:miter;stroke-miterlimit:10;stroke-dasharray:none;stroke-opacity:1"
             d="m 115.5,117 c -1e-5,4.9728 -0.95151,9.75633 -2.85453,14.3506 -1.90301,4.59427 -4.61267,8.64957 -8.12897,12.16589 -3.51631,3.5163 -7.571607,6.22596 -12.165884,8.12897 C 87.756348,153.54848 82.972809,154.49998 78,154.5 c -4.972816,-2e-5 -9.756363,-0.95152 -14.350636,-2.85454 -4.594276,-1.90301 -8.649566,-4.61267 -12.16587,-8.12897 -3.516308,-3.51632 -6.225971,-7.57162 -8.128983,-12.16589 C 41.4515,126.75633 40.499996,121.9728 40.5,117 c -4e-6,-4.97282 0.9515,-9.75635 2.854511,-14.35063 1.903012,-4.594278 4.612675,-8.649568 8.128983,-12.165872 3.516304,-3.51632 7.571594,-6.225983 12.16587,-8.128991 C 68.243637,80.4515 73.027184,79.5 78,79.5 c 4.972809,0 9.756348,0.9515 14.350616,2.854507 4.594277,1.903008 8.649574,4.612671 12.165884,8.128991 3.5163,3.516304 6.22596,7.571594 8.12897,12.165872 1.90302,4.59428 2.85452,9.37781 2.85453,14.35063 z" /></g><g
           transform="matrix(0.71933472,0,0,0.71933472,44.598751,79.846153)"
           id="g52"><text
             id="text56"
             style="font-variant:normal;font-weight:normal;font-size:12px;font-family:Helvetica;-inkscape-font-specification:Helvetica;writing-mode:lr-tb;fill:#000000;fill-opacity:1;fill-rule:nonzero;stroke:none"
             transform="translate(0.15625,11)"><tspan
               id="tspan54"
               y="0"
               x="0 6 12.673828 15.339844 22.013672 28.6875">colour</tspan></text>
</g><g
           transform="matrix(0.71933472,0,0,0.71933472,0.35966736,0.35966736)"
           id="g58"><path
             id="path60"
             style="fill:#ffffff;fill-opacity:1;fill-rule:nonzero;stroke:none"
             d="m 80,291 c -8e-6,5.30429 -1.014946,10.40674 -3.04483,15.30731 -2.029885,4.90055 -4.920182,9.2262 -8.670906,12.97696 -3.750725,3.7507 -8.076371,6.64102 -12.976933,8.6709 C 50.406769,329.98505 45.304325,330.99997 40,331 c -5.304333,-3e-5 -10.406778,-1.01495 -15.307341,-3.04483 -4.90056,-2.02988 -9.226204,-4.9202 -12.976931,-8.6709 C 7.9650002,315.53351 5.074697,311.20786 3.0448182,306.30731 1.0149393,301.40674 0,296.30429 0,291 c 0,-5.30435 1.0149393,-10.40683 3.0448182,-15.3074 2.0298788,-4.90055 4.920182,-9.2262 8.6709098,-12.9769 3.750727,-3.75073 8.076371,-6.64105 12.976931,-8.67092 C 29.593222,252.01492 34.695667,251 40,251 c 5.304325,0 10.406769,1.01492 15.307331,3.04478 4.900562,2.02987 9.226208,4.92019 12.976933,8.67092 3.750724,3.7507 6.641021,8.07635 8.670906,12.9769 C 78.985054,280.59317 79.999992,285.69565 80,291 Z" /><path
             id="path62"
             style="fill:none;stroke:#000000;stroke-width:1;stroke-linecap:butt;stroke-linejoin:miter;stroke-miterlimit:10;stroke-dasharray:none;stroke-opacity:1"
             d="m 80,291 c -8e-6,5.30429 -1.014946,10.40674 -3.04483,15.30731 -2.029885,4.90055 -4.920182,9.2262 -8.670906,12.97696 -3.750725,3.7507 -8.076371,6.64102 -12.976933,8.6709 C 50.406769,329.98505 45.304325,330.99997 40,331 c -5.304333,-3e-5 -10.406778,-1.01495 -15.307341,-3.04483 -4.90056,-2.02988 -9.226204,-4.9202 -12.976931,-8.6709 C 7.9650002,315.53351 5.074697,311.20786 3.0448182,306.30731 1.0149393,301.40674 0,296.30429 0,291 c 0,-5.30435 1.0149393,-10.40683 3.0448182,-15.3074 2.0298788,-4.90055 4.920182,-9.2262 8.6709098,-12.9769 3.750727,-3.75073 8.076371,-6.64105 12.976931,-8.67092 C 29.593222,252.01492 34.695667,251 40,251 c 5.304325,0 10.406769,1.01492 15.307331,3.04478 4.900562,2.02987 9.226208,4.92019 12.976933,8.67092 3.750724,3.7507 6.641021,8.07635 8.670906,12.9769 C 78.985054,280.59317 79.999992,285.69565 80,291 Z" /></g><g
           transform="matrix(0.71933472,0,0,0.71933472,5.7546778,205.01039)"
           id="g64"><text
             id="text68"
             style="font-variant:normal;font-weight:normal;font-size:12px;font-family:Helvetica;-inkscape-font-specification:Helvetica;writing-mode:lr-tb;fill:#000000;fill-opacity:1;fill-rule:nonzero;stroke:none"
             transform="translate(0.3125,11)"><tspan
               id="tspan66"
               y="0"
               x="0 6 12.673828 19.347656 23.34375 26.677734 33.351562 36.685547 40.019531 46.693359 49.359375 53.355469 56.689453">year of birth</tspan></text>
</g><g
           transform="matrix(0.71933472,0,0,0.71933472,0.35966736,0.35966736)"
           id="g70"><path
             id="path72"
             style="fill:#ffffff;fill-opacity:1;fill-rule:nonzero;stroke:none"
             d="m 440,118 c -3e-5,5.30431 -1.01501,10.40675 -3.04489,15.30731 -2.02988,4.90056 -4.92017,9.22621 -8.67087,12.97695 -3.75076,3.75071 -8.07642,6.641 -12.97696,8.67089 -4.90054,2.0299 -10.00299,3.04483 -15.30728,3.04485 -5.30435,-2e-5 -10.4068,-1.01495 -15.30737,-3.04485 -4.90055,-2.02989 -9.2262,-4.92018 -12.9769,-8.67089 -3.75076,-3.75074 -6.64105,-8.07639 -8.67093,-12.97695 C 361.01492,128.40675 360,123.30431 360,118 c 0,-5.30434 1.01492,-10.40678 3.0448,-15.30734 2.02988,-4.900569 4.92017,-9.226214 8.67093,-12.976939 3.7507,-3.750732 8.07635,-6.641037 12.9769,-8.670906 C 389.5932,79.014938 394.69565,78 400,78 c 5.30429,0 10.40674,1.014938 15.30728,3.044815 4.90054,2.029869 9.2262,4.920174 12.97696,8.670906 3.7507,3.750725 6.64102,8.076363 8.6709,12.976929 2.02988,4.90057 3.04483,10.00301 3.04486,15.30735 z" /><path
             id="path74"
             style="fill:none;stroke:#000000;stroke-width:1;stroke-linecap:butt;stroke-linejoin:miter;stroke-miterlimit:10;stroke-dasharray:none;stroke-opacity:1"
             d="m 440,118 c -3e-5,5.30431 -1.01501,10.40675 -3.04489,15.30731 -2.02988,4.90056 -4.92017,9.22621 -8.67087,12.97695 -3.75076,3.75071 -8.07642,6.641 -12.97696,8.67089 -4.90054,2.0299 -10.00299,3.04483 -15.30728,3.04485 -5.30435,-2e-5 -10.4068,-1.01495 -15.30737,-3.04485 -4.90055,-2.02989 -9.2262,-4.92018 -12.9769,-8.67089 -3.75076,-3.75074 -6.64105,-8.07639 -8.67093,-12.97695 C 361.01492,128.40675 360,123.30431 360,118 c 0,-5.30434 1.01492,-10.40678 3.0448,-15.30734 2.02988,-4.900569 4.92017,-9.226214 8.67093,-12.976939 3.7507,-3.750732 8.07635,-6.641037 12.9769,-8.670906 C 389.5932,79.014938 394.69565,78 400,78 c 5.30429,0 10.40674,1.014938 15.30728,3.044815 4.90054,2.029869 9.2262,4.920174 12.97696,8.670906 3.7507,3.750725 6.64102,8.076363 8.6709,12.976929 2.02988,4.90057 3.04483,10.00301 3.04486,15.30735 z" /></g><g
           transform="matrix(0.71933472,0,0,0.71933472,276.22455,80.565491)"
           id="g76"><text
             id="text80"
             style="font-variant:normal;font-weight:normal;font-size:12px;font-family:Helvetica;-inkscape-font-specification:Helvetica;writing-mode:lr-tb;fill:#000000;fill-opacity:1;fill-rule:nonzero;stroke:none"
             transform="translate(0.640625,11)"><tspan
               id="tspan78"
               y="0"
               x="0 6.6738281 13.347656 16.013672 22.6875 29.361328">height</tspan></text>
</g><g
           transform="matrix(0.71933472,0,0,0.71933472,0.35966736,0.35966736)"
           id="g82"><path
             id="path84"
             style="fill:#f8cecc;fill-opacity:1;fill-rule:nonzero;stroke:none"
             d="m 281.5,246 c -3e-5,5.37062 -1.02765,10.53683 -3.08292,15.49866 -2.05526,4.96182 -4.98172,9.34155 -8.77929,13.13916 -3.79761,3.79757 -8.17731,6.724 -13.13913,8.77926 -4.96183,2.05527 -10.12804,3.08289 -15.49866,3.08292 -5.37065,-3e-5 -10.53688,-1.02765 -15.49872,-3.08292 -4.96181,-2.05526 -9.34152,-4.98169 -13.13913,-8.77926 -3.79762,-3.79761 -6.72406,-8.17734 -8.77929,-13.13916 C 201.5276,256.53683 200.49998,251.37062 200.5,246 c -2e-5,-5.37065 1.02762,-10.5369 3.08287,-15.49872 2.05522,-4.96182 4.98166,-9.34154 8.77928,-13.13913 3.79761,-3.79761 8.17732,-6.72404 13.13913,-8.77929 C 230.46312,206.52762 235.62935,205.5 241,205.5 c 5.37062,0 10.53683,1.02762 15.49866,3.08286 4.96182,2.05525 9.34152,4.98168 13.13913,8.77929 3.79757,3.79759 6.72403,8.17731 8.77929,13.13913 2.05527,4.96182 3.08289,10.12807 3.08292,15.49872 z" /><path
             id="path86"
             style="fill:none;stroke:#b85450;stroke-width:1;stroke-linecap:butt;stroke-linejoin:miter;stroke-miterlimit:10;stroke-dasharray:none;stroke-opacity:1"
             d="m 281.5,246 c -3e-5,5.37062 -1.02765,10.53683 -3.08292,15.49866 -2.05526,4.96182 -4.98172,9.34155 -8.77929,13.13916 -3.79761,3.79757 -8.17731,6.724 -13.13913,8.77926 -4.96183,2.05527 -10.12804,3.08289 -15.49866,3.08292 -5.37065,-3e-5 -10.53688,-1.02765 -15.49872,-3.08292 -4.96181,-2.05526 -9.34152,-4.98169 -13.13913,-8.77926 -3.79762,-3.79761 -6.72406,-8.17734 -8.77929,-13.13916 C 201.5276,256.53683 200.49998,251.37062 200.5,246 c -2e-5,-5.37065 1.02762,-10.5369 3.08287,-15.49872 2.05522,-4.96182 4.98166,-9.34154 8.77928,-13.13913 3.79761,-3.79761 8.17732,-6.72404 13.13913,-8.77929 C 230.46312,206.52762 235.62935,205.5 241,205.5 c 5.37062,0 10.53683,1.02762 15.49866,3.08286 4.96182,2.05525 9.34152,4.98168 13.13913,8.77929 3.79757,3.79759 6.72403,8.17731 8.77929,13.13913 2.05527,4.96182 3.08289,10.12807 3.08292,15.49872 z" /></g><g
           transform="matrix(0.71933472,0,0,0.71933472,154.65697,172.64034)"
           id="g88"><text
             id="text92"
             style="font-variant:normal;font-weight:normal;font-size:12px;font-family:Helvetica;-inkscape-font-specification:Helvetica;writing-mode:lr-tb;fill:#000000;fill-opacity:1;fill-rule:nonzero;stroke:none"
             transform="translate(0.8125,11)"><tspan
               id="tspan90"
               y="0"
               x="0 2.6660156 5.3320312 8.6660156 15.339844 18.673828 21.339844 28.013672 34.6875 41.361328 44.695312">life length</tspan></text>
</g><g
           transform="matrix(0.71933472,0,0,0.71933472,0.35966736,0.35966736)"
           id="g94"><path
             id="path96"
             style="fill:#ffffff;fill-opacity:1;fill-rule:nonzero;stroke:none"
             d="m 193,431 c 0,5.30429 -1.01494,10.40671 -3.04482,15.30725 -2.02989,4.90057 -4.92019,9.22623 -8.67091,12.97699 -3.75073,3.7507 -8.07638,6.64102 -12.97694,8.6709 C 163.40675,469.98502 158.30431,470.99997 153,471 c -5.30434,-3e-5 -10.40678,-1.01501 -15.30734,-3.04489 -4.90056,-2.02988 -9.22621,-4.92017 -12.97693,-8.67087 -3.75073,-3.75076 -6.64104,-8.07642 -8.67092,-12.97699 C 114.01493,441.40671 112.99999,436.30429 113,431 c -1e-5,-5.30435 1.01493,-10.4068 3.04481,-15.30737 2.02988,-4.90055 4.92019,-9.2262 8.67092,-12.97693 3.75072,-3.75073 8.07637,-6.64105 12.97693,-8.67093 C 142.59322,392.01492 147.69566,391 153,391 c 5.30431,0 10.40675,1.01492 15.30733,3.0448 4.90056,2.02988 9.22621,4.92017 12.97694,8.6709 3.75072,3.75073 6.64101,8.07635 8.6709,12.9769 C 191.98506,420.5932 193,425.69565 193,431 Z" /><path
             id="path98"
             style="fill:none;stroke:#000000;stroke-width:1;stroke-linecap:butt;stroke-linejoin:miter;stroke-miterlimit:10;stroke-dasharray:none;stroke-opacity:1"
             d="m 193,431 c 0,5.30429 -1.01494,10.40671 -3.04482,15.30725 -2.02989,4.90057 -4.92019,9.22623 -8.67091,12.97699 -3.75073,3.7507 -8.07638,6.64102 -12.97694,8.6709 C 163.40675,469.98502 158.30431,470.99997 153,471 c -5.30434,-3e-5 -10.40678,-1.01501 -15.30734,-3.04489 -4.90056,-2.02988 -9.22621,-4.92017 -12.97693,-8.67087 -3.75073,-3.75076 -6.64104,-8.07642 -8.67092,-12.97699 C 114.01493,441.40671 112.99999,436.30429 113,431 c -1e-5,-5.30435 1.01493,-10.4068 3.04481,-15.30737 2.02988,-4.90055 4.92019,-9.2262 8.67092,-12.97693 3.75072,-3.75073 8.07637,-6.64105 12.97693,-8.67093 C 142.59322,392.01492 147.69566,391 153,391 c 5.30431,0 10.40675,1.01492 15.30733,3.0448 4.90056,2.02988 9.22621,4.92017 12.97694,8.6709 3.75072,3.75073 6.64101,8.07635 8.6709,12.9769 C 191.98506,420.5932 193,425.69565 193,431 Z" /></g><g
           transform="matrix(0.71933472,0,0,0.71933472,99.987526,305.71725)"
           id="g100"><text
             id="text104"
             style="font-variant:normal;font-weight:normal;font-size:12px;font-family:Helvetica;-inkscape-font-specification:Helvetica;writing-mode:lr-tb;fill:#000000;fill-opacity:1;fill-rule:nonzero;stroke:none"
             transform="translate(0.65625,11)"><tspan
               id="tspan102"
               y="0"
               x="0 6 12 18.673828 22.669922">scars</tspan></text>
</g><g
           transform="matrix(0.71933472,0,0,0.71933472,0.35966736,0.35966736)"
           id="g106"><path
             id="path108"
             style="fill:#ffffff;fill-opacity:1;fill-rule:nonzero;stroke:none"
             d="m 367,431 c -3e-5,5.30429 -1.01498,10.40671 -3.04486,15.30725 -2.02988,4.90057 -4.9202,9.22623 -8.6709,12.97699 -3.75073,3.7507 -8.07638,6.64102 -12.97696,8.6709 C 337.40674,469.98502 332.30429,470.99997 327,471 c -5.30435,-3e-5 -10.4068,-1.01501 -15.3074,-3.04489 -4.90055,-2.02988 -9.2262,-4.92017 -12.9769,-8.67087 -3.75073,-3.75076 -6.64105,-8.07642 -8.67093,-12.97699 C 288.01489,441.40671 286.99997,436.30429 287,431 c -3e-5,-5.30435 1.01489,-10.4068 3.04477,-15.30737 2.02988,-4.90055 4.9202,-9.2262 8.67093,-12.97693 3.7507,-3.75073 8.07635,-6.64105 12.9769,-8.67093 C 316.5932,392.01492 321.69565,391 327,391 c 5.30429,0 10.40674,1.01492 15.30728,3.0448 4.90058,2.02988 9.22623,4.92017 12.97696,8.6709 3.7507,3.75073 6.64102,8.07635 8.6709,12.9769 2.02988,4.9006 3.04483,10.00305 3.04486,15.3074 z" /><path
             id="path110"
             style="fill:none;stroke:#000000;stroke-width:1;stroke-linecap:butt;stroke-linejoin:miter;stroke-miterlimit:10;stroke-dasharray:none;stroke-opacity:1"
             d="m 367,431 c -3e-5,5.30429 -1.01498,10.40671 -3.04486,15.30725 -2.02988,4.90057 -4.9202,9.22623 -8.6709,12.97699 -3.75073,3.7507 -8.07638,6.64102 -12.97696,8.6709 C 337.40674,469.98502 332.30429,470.99997 327,471 c -5.30435,-3e-5 -10.4068,-1.01501 -15.3074,-3.04489 -4.90055,-2.02988 -9.2262,-4.92017 -12.9769,-8.67087 -3.75073,-3.75076 -6.64105,-8.07642 -8.67093,-12.97699 C 288.01489,441.40671 286.99997,436.30429 287,431 c -3e-5,-5.30435 1.01489,-10.4068 3.04477,-15.30737 2.02988,-4.90055 4.9202,-9.2262 8.67093,-12.97693 3.7507,-3.75073 8.07635,-6.64105 12.9769,-8.67093 C 316.5932,392.01492 321.69565,391 327,391 c 5.30429,0 10.40674,1.01492 15.30728,3.0448 4.90058,2.02988 9.22623,4.92017 12.97696,8.6709 3.7507,3.75073 6.64102,8.07635 8.6709,12.9769 2.02988,4.9006 3.04483,10.00305 3.04486,15.3074 z" /></g><g
           transform="matrix(0.71933472,0,0,0.71933472,215.80042,300.68192)"
           id="g112"><text
             id="text116"
             style="font-variant:normal;font-weight:normal;font-size:12px;font-family:Helvetica;-inkscape-font-specification:Helvetica;writing-mode:lr-tb;fill:#000000;fill-opacity:1;fill-rule:nonzero;stroke:none"
             transform="translate(0.984375,11)"><tspan
               id="tspan114"
               y="0"
               x="0 6.6738281 13.347656 23.34375 30.017578 36.691406 40.6875 44.021484 50.695312">number of</tspan></text>
<text
             id="text120"
             style="font-variant:normal;font-weight:normal;font-size:12px;font-family:Helvetica;-inkscape-font-specification:Helvetica;writing-mode:lr-tb;fill:#000000;fill-opacity:1;fill-rule:nonzero;stroke:none"
             transform="translate(3.65625,25)"><tspan
               id="tspan118"
               y="0"
               x="0 2.6660156 9.3398438 15.339844 18.673828 22.007812 25.341797 32.015625 38.689453 42.023438">lost teeth</tspan></text>
</g><g
           transform="matrix(0.71933472,0,0,0.71933472,0.35966736,0.35966736)"
           id="g122"><path
             id="path124"
             style="fill:#ffffff;fill-opacity:1;fill-rule:nonzero;stroke:none"
             d="m 480,294 c -3e-5,5.30429 -1.01501,10.40671 -3.04489,15.30728 -2.02988,4.90058 -4.92017,9.22623 -8.67087,12.97696 -3.75076,3.7507 -8.07642,6.64102 -12.97696,8.6709 C 450.40674,332.98502 445.30429,333.99997 440,334 c -5.30435,-3e-5 -10.40683,-1.01498 -15.30737,-3.04486 -4.90058,-2.02988 -9.22623,-4.9202 -12.97693,-8.6709 -3.75076,-3.75073 -6.64105,-8.07638 -8.67093,-12.97696 C 401.01489,304.40671 399.99997,299.30429 400,294 c -3e-5,-5.30435 1.01486,-10.4068 3.04474,-15.30737 2.02988,-4.90058 4.9202,-9.22623 8.67096,-12.97693 3.7507,-3.75073 8.07635,-6.64102 12.97693,-8.6709 C 429.59317,255.01494 434.69565,254 440,254 c 5.30429,0 10.40674,1.01494 15.30728,3.0448 4.90054,2.02988 9.2262,4.92017 12.97696,8.6709 3.7507,3.7507 6.64099,8.07635 8.67087,12.97693 C 478.98499,283.5932 479.99997,288.69565 480,294 Z" /><path
             id="path126"
             style="fill:none;stroke:#000000;stroke-width:1;stroke-linecap:butt;stroke-linejoin:miter;stroke-miterlimit:10;stroke-dasharray:none;stroke-opacity:1"
             d="m 480,294 c -3e-5,5.30429 -1.01501,10.40671 -3.04489,15.30728 -2.02988,4.90058 -4.92017,9.22623 -8.67087,12.97696 -3.75076,3.7507 -8.07642,6.64102 -12.97696,8.6709 C 450.40674,332.98502 445.30429,333.99997 440,334 c -5.30435,-3e-5 -10.40683,-1.01498 -15.30737,-3.04486 -4.90058,-2.02988 -9.22623,-4.9202 -12.97693,-8.6709 -3.75076,-3.75073 -6.64105,-8.07638 -8.67093,-12.97696 C 401.01489,304.40671 399.99997,299.30429 400,294 c -3e-5,-5.30435 1.01486,-10.4068 3.04474,-15.30737 2.02988,-4.90058 4.9202,-9.22623 8.67096,-12.97693 3.7507,-3.75073 8.07635,-6.64102 12.97693,-8.6709 C 429.59317,255.01494 434.69565,254 440,254 c 5.30429,0 10.40674,1.01494 15.30728,3.0448 4.90054,2.02988 9.2262,4.92017 12.97696,8.6709 3.7507,3.7507 6.64099,8.07635 8.67087,12.97693 C 478.98499,283.5932 479.99997,288.69565 480,294 Z" /></g><g
           transform="matrix(0.71933472,0,0,0.71933472,304.27859,207.1684)"
           id="g128"><text
             id="text132"
             style="font-variant:normal;font-weight:normal;font-size:12px;font-family:Helvetica;-inkscape-font-specification:Helvetica;writing-mode:lr-tb;fill:#000000;fill-opacity:1;fill-rule:nonzero;stroke:none"
             transform="translate(0.65625,11)"><tspan
               id="tspan130"
               y="0"
               x="0 8.6660156 15.339844 18.005859 24.679688 31.353516">weight</tspan></text>
</g><g
           transform="matrix(0.71933472,0,0,0.71933472,0.35966736,0.35966736)"
           id="g134"><path
             id="path136"
             style="fill:none;stroke:#000000;stroke-width:1;stroke-linecap:butt;stroke-linejoin:miter;stroke-miterlimit:10;stroke-dasharray:none;stroke-opacity:1"
             d="m 241,80 112.92999,36.06" /><path
             id="path138"
             style="fill:#000000;fill-opacity:1;fill-rule:nonzero;stroke:none"
             d="m 358.92999,117.66 -7.72998,1.2 2.72998,-2.8 -0.6,-3.86 z" /><path
             id="path140"
             style="fill:none;stroke:#000000;stroke-width:1;stroke-linecap:butt;stroke-linejoin:miter;stroke-miterlimit:10;stroke-dasharray:none;stroke-opacity:1"
             d="m 358.92999,117.66 -7.72998,1.2 2.72998,-2.8 -0.6,-3.86 z" /><path
             id="path142"
             style="fill:none;stroke:#000000;stroke-width:1;stroke-linecap:butt;stroke-linejoin:miter;stroke-miterlimit:10;stroke-dasharray:none;stroke-opacity:1"
             d="m 369,143 -91.03,73.02" /><path
             id="path144"
             style="fill:#000000;fill-opacity:1;fill-rule:nonzero;stroke:none"
             d="m 273.87,219.3 3.27001,-7.11 0.82999,3.83 3.54999,1.62999 z" /><path
             id="path146"
             style="fill:none;stroke:#000000;stroke-width:1;stroke-linecap:butt;stroke-linejoin:miter;stroke-miterlimit:10;stroke-dasharray:none;stroke-opacity:1"
             d="m 273.87,219.3 3.27001,-7.11 0.82999,3.83 3.54999,1.62999 z" /><path
             id="path148"
             style="fill:none;stroke:#000000;stroke-width:1;stroke-linecap:butt;stroke-linejoin:miter;stroke-miterlimit:10;stroke-dasharray:none;stroke-opacity:1"
             d="M 312,394 260.76999,287.73999" /><path
             id="path150"
             style="fill:#000000;fill-opacity:1;fill-rule:nonzero;stroke:none"
             d="m 258.48999,283.01001 6.19,4.78 -3.91,-0.05 -2.39999,3.09 0.11999,-7.81998 z" /><path
             id="path152"
             style="fill:none;stroke:#000000;stroke-width:1;stroke-linecap:butt;stroke-linejoin:miter;stroke-miterlimit:10;stroke-dasharray:none;stroke-opacity:1"
             d="m 258.48999,283.01001 6.19,4.78 -3.91,-0.05 -2.39999,3.09 0.11999,-7.81998 z" /></g><g
           transform="matrix(0.71933472,0,0,0.71933472,192.78171,237.38046)"
           id="g154"><path
             id="path156"
             style="fill:#ffffff;fill-opacity:1;fill-rule:nonzero;stroke:none"
             d="M 0,0 H 33 V 14 H 0 Z" /><text
             id="text160"
             style="font-variant:normal;font-weight:normal;font-size:12px;font-family:Helvetica;-inkscape-font-specification:Helvetica;writing-mode:lr-tb;fill:#000000;fill-opacity:1;fill-rule:nonzero;stroke:none"
             transform="translate(0,11)"><tspan
               id="tspan158"
               y="0"
               x="0 6.6738281 9.3398438 16.013672 22.6875 29.361328">Linear</tspan></text>
</g><g
           transform="matrix(0.71933472,0,0,0.71933472,0.35966736,0.35966736)"
           id="g162"><path
             id="path164"
             style="fill:none;stroke:#000000;stroke-width:1;stroke-linecap:butt;stroke-linejoin:miter;stroke-miterlimit:10;stroke-dasharray:none;stroke-opacity:1"
             d="M 169,393 220.21001,287.73001" /><path
             id="path166"
             style="fill:#000000;fill-opacity:1;fill-rule:nonzero;stroke:none"
             d="m 222.50999,283.01001 0.09,7.81998 -2.39,-3.09998 -3.91001,0.04 6.20999,-4.75998 z" /><path
             id="path168"
             style="fill:none;stroke:#000000;stroke-width:1;stroke-linecap:butt;stroke-linejoin:miter;stroke-miterlimit:10;stroke-dasharray:none;stroke-opacity:1"
             d="m 222.50999,283.01001 0.09,7.81998 -2.39,-3.09998 -3.91001,0.04 6.20999,-4.75998 z" /></g><g
           transform="matrix(0.71933472,0,0,0.71933472,133.79626,235.94179)"
           id="g170"><path
             id="path172"
             style="fill:#ffffff;fill-opacity:1;fill-rule:nonzero;stroke:none"
             d="M 0,0 H 33 V 14 H 0 Z" /><text
             id="text176"
             style="font-variant:normal;font-weight:normal;font-size:12px;font-family:Helvetica;-inkscape-font-specification:Helvetica;writing-mode:lr-tb;fill:#000000;fill-opacity:1;fill-rule:nonzero;stroke:none"
             transform="translate(0,11)"><tspan
               id="tspan174"
               y="0"
               x="0 6.6738281 9.3398438 16.013672 22.6875 29.361328">Linear</tspan></text>
</g><g
           transform="matrix(0.71933472,0,0,0.71933472,292.0499,142.42827)"
           id="g178"><path
             id="path180"
             style="fill:#ffffff;fill-opacity:1;fill-rule:nonzero;stroke:none"
             d="M 0,0 H 33 V 14 H 0 Z" /><text
             id="text184"
             style="font-variant:normal;font-weight:normal;font-size:12px;font-family:Helvetica;-inkscape-font-specification:Helvetica;writing-mode:lr-tb;fill:#000000;fill-opacity:1;fill-rule:nonzero;stroke:none"
             transform="translate(0,11)"><tspan
               id="tspan182"
               y="0"
               x="0 6.6738281 9.3398438 16.013672 22.6875 29.361328">Linear</tspan></text>
</g><g
           transform="matrix(0.71933472,0,0,0.71933472,212.92308,128.04158)"
           id="g186"><path
             id="path188"
             style="fill:#ffffff;fill-opacity:1;fill-rule:nonzero;stroke:none"
             d="M 0,0 H 52 V 14 H 0 Z" /><text
             id="text192"
             style="font-variant:normal;font-weight:normal;font-size:12px;font-family:Helvetica;-inkscape-font-specification:Helvetica;writing-mode:lr-tb;fill:#000000;fill-opacity:1;fill-rule:nonzero;stroke:none"
             transform="translate(0,11)"><tspan
               id="tspan190"
               y="0"
               x="0 9.3339844 16.007812 22.681641 29.355469 33.351562 40.025391 43.359375 46.025391">Quadratic</tspan></text>
</g><g
           transform="matrix(0.71933472,0,0,0.71933472,115.09355,68.3368)"
           id="g194"><path
             id="path196"
             style="fill:#ffffff;fill-opacity:1;fill-rule:nonzero;stroke:none"
             d="M 0,0 H 164 V 28 H 0 Z" /><text
             id="text200"
             style="font-variant:normal;font-weight:normal;font-size:12px;font-family:Helvetica;-inkscape-font-specification:Helvetica;writing-mode:lr-tb;fill:#000000;fill-opacity:1;fill-rule:nonzero;stroke:none"
             transform="translate(0,11)"><tspan
               id="tspan198"
               y="0"
               x="0 8.6660156 11.332031 14.455078 17.789062 24.462891 28.458984 35.132812 41.806641 45.140625 48.474609 55.148438 57.814453 63.814453 67.148438 71.144531 73.810547 80.484375 87.158203 90.492188 93.158203 99.832031 106.50586 109.83984 116.51367 119.84766 123.18164 129.85547 133.85156 137.18555 143.85938 150.5332 157.20703">Different distribution after 1840</tspan></text>
<text
             id="text204"
             style="font-variant:normal;font-weight:normal;font-size:12px;font-family:Helvetica;-inkscape-font-specification:Helvetica;writing-mode:lr-tb;fill:#000000;fill-opacity:1;fill-rule:nonzero;stroke:none"
             transform="translate(35.921875,25)"><tspan
               id="tspan202"
               y="0"
               x="0 3.3339844 10.007812 14.003906 17.337891 24.011719 26.677734 33.351562 39.351562 45.351562 48.685547 55.359375 59.355469 66.029297 72.703125 79.376953 86.050781">for black dragons</tspan></text>
</g><g
           transform="matrix(0.71933472,0,0,0.71933472,72.652809,186.30769)"
           id="g206"><path
             id="path208"
             style="fill:#ffffff;fill-opacity:1;fill-rule:nonzero;stroke:none"
             d="M 0,0 H 70 V 14 H 0 Z" /><text
             id="text212"
             style="font-variant:normal;font-weight:normal;font-size:12px;font-family:Helvetica;-inkscape-font-specification:Helvetica;writing-mode:lr-tb;fill:#000000;fill-opacity:1;fill-rule:nonzero;stroke:none"
             transform="translate(0,11)"><tspan
               id="tspan210"
               y="0"
               x="0 8.0039062 11.337891 18.011719 24.685547 28.019531 31.353516 38.027344 44.701172 50.701172 54.035156 56.701172 63.375">Step function</tspan></text>
</g><g
           transform="matrix(0.71933472,0,0,0.71933472,0.35966736,0.35966736)"
           id="g214"><path
             id="path216"
             style="fill:#ffffff;fill-opacity:1;fill-rule:nonzero;stroke:none"
             d="m 281,40 c 0,5.304325 -1.01495,10.406769 -3.04483,15.307331 -2.02988,4.900562 -4.9202,9.226208 -8.6709,12.976933 -3.75073,3.750724 -8.07638,6.641021 -12.97696,8.670906 C 251.40675,78.985054 246.30432,79.999992 241,80 c -5.30434,-8e-6 -10.40678,-1.014946 -15.30736,-3.04483 -4.90056,-2.029885 -9.22619,-4.920182 -12.97691,-8.670906 C 208.965,64.533539 206.07469,60.207893 204.04482,55.307331 202.01492,50.406769 200.99998,45.304325 201,40 c -2e-5,-5.304333 1.01492,-10.406778 3.04482,-15.307341 2.02987,-4.90056 4.92018,-9.226204 8.67091,-12.976931 3.75072,-3.7507278 8.07635,-6.641031 12.97691,-8.6709098 C 230.59322,1.0149393 235.69566,0 241,0 c 5.30432,0 10.40675,1.0149393 15.30731,3.0448182 4.90058,2.0298788 9.22623,4.920182 12.97696,8.6709098 3.7507,3.750727 6.64102,8.076371 8.6709,12.976931 C 279.98505,29.593222 281,34.695667 281,40 Z" /><path
             id="path218"
             style="fill:none;stroke:#000000;stroke-width:1;stroke-linecap:butt;stroke-linejoin:miter;stroke-miterlimit:10;stroke-dasharray:none;stroke-opacity:1"
             d="m 281,40 c 0,5.304325 -1.01495,10.406769 -3.04483,15.307331 -2.02988,4.900562 -4.9202,9.226208 -8.6709,12.976933 -3.75073,3.750724 -8.07638,6.641021 -12.97696,8.670906 C 251.40675,78.985054 246.30432,79.999992 241,80 c -5.30434,-8e-6 -10.40678,-1.014946 -15.30736,-3.04483 -4.90056,-2.029885 -9.22619,-4.920182 -12.97691,-8.670906 C 208.965,64.533539 206.07469,60.207893 204.04482,55.307331 202.01492,50.406769 200.99998,45.304325 201,40 c -2e-5,-5.304333 1.01492,-10.406778 3.04482,-15.307341 2.02987,-4.90056 4.92018,-9.226204 8.67091,-12.976931 3.75072,-3.7507278 8.07635,-6.641031 12.97691,-8.6709098 C 230.59322,1.0149393 235.69566,0 241,0 c 5.30432,0 10.40675,1.0149393 15.30731,3.0448182 4.90058,2.0298788 9.22623,4.920182 12.97696,8.6709098 3.7507,3.750727 6.64102,8.076371 8.6709,12.976931 C 279.98505,29.593222 281,34.695667 281,40 Z" /></g><g
           transform="matrix(0.71933472,0,0,0.71933472,146.02495,19.422037)"
           id="g220"><text
             id="text224"
             style="font-variant:normal;font-weight:normal;font-size:12px;font-family:Helvetica;-inkscape-font-specification:Helvetica;writing-mode:lr-tb;fill:#000000;fill-opacity:1;fill-rule:nonzero;stroke:none"
             transform="translate(19.65625,11)"><tspan
               id="tspan222"
               y="0"
               x="0 6 12.673828 19.347656 23.34375 26.677734 33.351562">year of</tspan></text>
<text
             id="text228"
             style="font-variant:normal;font-weight:normal;font-size:12px;font-family:Helvetica;-inkscape-font-specification:Helvetica;writing-mode:lr-tb;fill:#000000;fill-opacity:1;fill-rule:nonzero;stroke:none"
             transform="translate(12.65625,25)"><tspan
               id="tspan226"
               y="0"
               x="0 6.6738281 9.3398438 15.339844 21.339844 28.013672 34.013672 40.6875 44.683594">discovery</tspan></text>
</g></g></g></g></svg>